<svg width="36" height="36" viewBox="0 0 36 36" fill="none" xmlns="http://www.w3.org/2000/svg">
<path d="M16.5 22.5C16.075 22.5 15.7188 22.3563 15.4313 22.0688C15.1438 21.7812 15 21.425 15 21V15C15 14.575 15.1438 14.2188 15.4313 13.9313C15.7188 13.6438 16.075 13.5 16.5 13.5H21C21.425 13.5 21.7812 13.6438 22.0688 13.9313C22.3563 14.2188 22.5 14.575 22.5 15V21C22.5 21.425 22.3563 21.7812 22.0688 22.0688C21.7812 22.3563 21.425 22.5 21 22.5H16.5ZM17.25 20.25H20.25V15.75H17.25V20.25ZM6 22.5C5.575 22.5 5.21875 22.3563 4.93125 22.0688C4.64375 21.7812 4.5 21.425 4.5 21V15C4.5 14.575 4.64375 14.2188 4.93125 13.9313C5.21875 13.6438 5.575 13.5 6 13.5H10.5C10.925 13.5 11.2813 13.6438 11.5688 13.9313C11.8563 14.2188 12 14.575 12 15V16.5H9.75V15.75H6.75V20.25H9.75V19.5H12V21C12 21.425 11.8563 21.7812 11.5688 22.0688C11.2813 22.3563 10.925 22.5 10.5 22.5H6ZM25.5 27V23.25C25.5 22.825 25.6438 22.4688 25.9313 22.1813C26.2188 21.8938 26.575 21.75 27 21.75H30V20.25H25.5V18H30.75C31.175 18 31.5313 18.1438 31.8188 18.4313C32.1063 18.7188 32.25 19.075 32.25 19.5V21.75C32.25 22.175 32.1063 22.5312 31.8188 22.8188C31.5313 23.1063 31.175 23.25 30.75 23.25H27.75V24.75H32.25V27H25.5Z" fill="#E3E3E3"/>
</svg>
