<svg width="32" height="32" viewBox="0 0 32 32" fill="none" xmlns="http://www.w3.org/2000/svg">
<path d="M2.66699 29.3333L6.66699 25.3333M10.0003 18L13.3337 14.6667M14.0003 22L17.3337 18.6667M24.0003 4L18.667 9.33333H26.667L21.3337 14.6667M8.40033 27.0667C8.69762 27.365 9.05087 27.6017 9.43984 27.7632C9.8288 27.9247 10.2458 28.0079 10.667 28.0079C11.0882 28.0079 11.5052 27.9247 11.8941 27.7632C12.2831 27.6017 12.6364 27.365 12.9337 27.0667L16.0003 24L8.00033 16L4.93366 19.0667C4.63533 19.364 4.39863 19.7172 4.23712 20.1062C4.07561 20.4951 3.99247 20.9122 3.99247 21.3333C3.99247 21.7545 4.07561 22.1715 4.23712 22.5605C4.39863 22.9495 4.63533 23.3027 4.93366 23.6L8.40033 27.0667Z" stroke="white" stroke-width="2" stroke-linecap="round" stroke-linejoin="round"/>
</svg>
