<svg width="36" height="36" viewBox="0 0 36 36" fill="none" xmlns="http://www.w3.org/2000/svg">
<path d="M18 36C12.8143 36 8.51786 35.5125 5.11071 34.5375C1.70357 33.5625 0 31.95 0 29.7C0 27.45 1.70357 25.8375 5.11071 24.8625C8.51786 23.8875 12.8143 23.4 18 23.4C23.1857 23.4 27.4821 23.8875 30.8893 24.8625C34.2964 25.8375 36 27.45 36 29.7C36 31.95 34.2964 33.5625 30.8893 34.5375C27.4821 35.5125 23.1857 36 18 36ZM18 32.4C13.6714 32.4 10.2 32.085 7.58571 31.455C4.97143 30.825 3.38571 29.94 2.82857 28.8C2.74286 28.95 2.67857 29.1 2.63571 29.25C2.59286 29.4 2.57143 29.55 2.57143 29.7C2.57143 31.05 3.975 32.1375 6.78214 32.9625C9.58929 33.7875 13.3286 34.2 18 34.2C22.6714 34.2 26.4107 33.7875 29.2179 32.9625C32.025 32.1375 33.4286 31.05 33.4286 29.7C33.4286 29.55 33.4071 29.4 33.3643 29.25C33.3214 29.1 33.2571 28.95 33.1714 28.8C32.6143 29.94 31.0286 30.825 28.4143 31.455C25.8 32.085 22.3286 32.4 18 32.4ZM18 30.6C21.7714 30.6 24.8571 30.345 27.2571 29.835C29.6571 29.325 30.8571 28.68 30.8571 27.9C30.8571 27.12 29.6571 26.475 27.2571 25.965C24.8571 25.455 21.7714 25.2 18 25.2C14.2286 25.2 11.1429 25.455 8.74286 25.965C6.34286 26.475 5.14286 27.12 5.14286 27.9C5.14286 28.68 6.34286 29.325 8.74286 29.835C11.1429 30.345 14.2286 30.6 18 30.6ZM15.4286 21.6V12.6H10.2857L20.5714 0V9H25.7143L15.4286 21.6Z" fill="#E6E6E6"/>
</svg>
