<svg width="36" height="36" viewBox="0 0 36 36" fill="none" xmlns="http://www.w3.org/2000/svg">
<path d="M16.5 27H18L24 18H19.5V12H18L12 21H16.5V27ZM18 33C14.575 33 11.7188 31.825 9.43125 29.475C7.14375 27.125 6 24.2 6 20.7C6 18.2 6.99375 15.4813 8.98125 12.5438C10.9688 9.60625 13.975 6.425 18 3C22.025 6.425 25.0312 9.60625 27.0188 12.5438C29.0063 15.4813 30 18.2 30 20.7C30 24.2 28.8563 27.125 26.5688 29.475C24.2812 31.825 21.425 33 18 33ZM18 30C20.6 30 22.75 29.1188 24.45 27.3563C26.15 25.5938 27 23.375 27 20.7C27 18.875 26.2438 16.8125 24.7313 14.5125C23.2188 12.2125 20.975 9.7 18 6.975C15.025 9.7 12.7812 12.2125 11.2688 14.5125C9.75625 16.8125 9 18.875 9 20.7C9 23.375 9.85 25.5938 11.55 27.3563C13.25 29.1188 15.4 30 18 30Z" fill="#E3E3E3"/>
</svg>
